<svg width="45" height="51" viewBox="0 0 45 51" fill="none" xmlns="http://www.w3.org/2000/svg">
<rect width="45" height="51" fill="#F5F5F5"/>
<g id="Tiendas Web | color" clip-path="url(#clip0_0_1)">
<g id="Tiendas">
<rect width="1441" height="2009.1" transform="translate(-172 -1591.89)" fill="white"/>
<g id="Footer ">
<rect width="1440" height="539" transform="translate(-171.5 -121.79)" fill="url(#paint0_linear_0_1)"/>
<g id="Contenido superior">
<g id="Group 739">
<g id="Card de sugerencias">
<rect id="Fondo de card" opacity="0.1" x="-21.5" y="-22.7151" width="359" height="233" rx="8" fill="white"/>
<g id="Contenido de card">
<g id="Logo">
<path d="M32.9858 26.0305H31.2493V29.3132H32.8789C34.2147 29.3132 34.8825 28.9334 34.8825 27.6854C34.8825 26.4375 34.2147 26.0305 32.9858 26.0305Z" fill="white"/>
<path d="M34.5887 22.7749C34.5887 21.8525 34.1078 21.2556 33.0392 21.2556H31.2493V24.267H33.0392C34.1078 24.267 34.5887 23.7244 34.5887 22.7749Z" fill="white"/>
<path d="M11.3998 21.2556H10.0641V24.9995H11.5869C12.8692 24.9995 13.5905 24.5383 13.5905 23.1276C13.5905 21.6626 12.8158 21.2556 11.3998 21.2556Z" fill="white"/>
<path d="M43.2177 11.8417L23.7957 0.637163C22.9942 0.175959 22.0058 0.175959 21.2043 0.637163L1.78233 11.8417C1.00759 12.3029 0.5 13.1439 0.5 14.0664V36.4755C0.5 37.3979 1.00759 38.2389 1.78233 38.7001L21.2043 49.9047C21.605 50.1217 22.0592 50.2573 22.4866 50.2573C22.9408 50.2573 23.3682 50.1488 23.769 49.9047L43.191 38.7001C43.9924 38.2389 44.4733 37.3708 44.4733 36.4755V14.0664C44.5 13.1439 44.0191 12.3029 43.2177 11.8417ZM13.8576 31.1581L11.667 26.8444H10.0641V31.1581H7.95355V19.4109H11.5067C14.1248 19.4109 15.7277 20.4418 15.7277 23.1277C15.7277 25.298 14.5789 26.1391 13.6706 26.4917L16.2086 31.1309H13.8576V31.1581ZM24.6506 31.1581L19.9754 23.4261H19.8953V31.1581H17.8916V19.4109H19.7083L24.4369 27.1429H24.517V19.4109H26.5206V31.1581H24.6506ZM33.0926 31.1581H29.1655V19.4109H33.1193C35.5237 19.4109 36.7259 20.6589 36.7259 22.6122C36.7259 23.6703 36.1648 24.5655 35.2832 24.9725V25.0539C36.4053 25.5151 37.0465 26.4104 37.0465 27.794C37.0465 29.8287 35.871 31.1581 33.0926 31.1581Z" fill="white"/>
</g>
</g>
</g>
</g>
</g>
</g>
</g>
</g>
<defs>
<linearGradient id="paint0_linear_0_1" x1="170.791" y1="1781.33" x2="1913.61" y2="1618.15" gradientUnits="userSpaceOnUse">
<stop stop-color="#006EF2"/>
<stop offset="1" stop-color="#01AEFA"/>
</linearGradient>
<clipPath id="clip0_0_1">
<rect width="1441" height="2488.21" fill="white" transform="translate(-172 -2071)"/>
</clipPath>
</defs>
</svg>
